<svg xmlns="http://www.w3.org/2000/svg" viewBox="0 0 512 344.31"><defs><style>.cls-1{fill:#bab9af;}.cls-2{fill:#ffc600;}.cls-3{fill:#53575a;}.cls-4{fill:#6e561c;}</style></defs><g id="Layer_2" data-name="Layer 2"><g id="Layer_1-2" data-name="Layer 1"><path class="cls-1" d="M492.25,60.51c-2-2.7-16.22-22.29-82.44-49.32C249.67-54.35,35.47,187.54,8.45,232.82A57.77,57.77,0,0,0,1,251.06C75.34,183.49,258.45,34.84,426,46.32,462.51,43.62,490.89,59.16,492.25,60.51Z"/><path class="cls-2" d="M492.25,60.51c-5.41-4-33.79-16.89-66.9-14.19H426a16.73,16.73,0,0,0-5.41.68c12.84,9.46,19.6,15.54,24.33,37.84,4.05,21,4.05,43.92-32.44,62.84-18.92,9.46-184.46,82.43-189.19,83.78a359.25,359.25,0,0,0-20.95,31.09,193,193,0,0,0-14.19,24.32c-13.51,25.68-15.54,43.92-2,55.41,1.36.67,1.36,1.35,1.36,2,2-.68,253.38-81.76,304.73-141.22C529.41,170,505.08,80.11,492.25,60.51Z"/><path class="cls-3" d="M498.33,344.31h-27c-6.08,0-11.49-4.06-14.19-10.81l-18.92-45.28H339.54L320.62,333.5c-2.7,6.75-8.11,10.81-14.19,10.81h-27a9,9,0,0,1-8.78-12.17l94.6-213.52a14.39,14.39,0,0,1,13.51-10.13h19.59a13.6,13.6,0,0,1,13.52,10.13l94.6,213.52C509.14,338.9,505.08,344.31,498.33,344.31Zm-75.68-94.6c-16.22-39.87-30.41-81.76-33.79-90.54-4.05,8.78-17.56,50.67-34.46,90.54Z"/><path class="cls-4" d="M65.88,283.49c-25,5.41-36.49,5.41-40.54,4.73L53,297.68c35.14,11.49,93.92,31.09,120.28,40.54L188.18,343c0-.67-.67-.67-1.35-1.35-21.62-18.24-2-55.4,37.16-110.14-5.4,2-21.62,8.11-21.62,8.79C152.37,259.17,103,275.39,65.88,283.49Z"/><path class="cls-3" d="M1,250.38c-6.75,32.44,22.3,43.92,27,45.28,4.73,2,166.9,58.11,159.47,46.62l-14.87-4.73C146.29,328.09,88.18,308.49,52.37,297l-27.71-9.46c4.06.67,15.54.67,40.55-4.73C102.37,275.39,151,258.49,201,239.57c.68,0,16.22-6.75,21.62-8.78h0c18.92-27,42.57-58.11,67.57-93.92C338.86,68,387.51,47.68,424.68,45,258.45,34.16,75.34,182.81,1,250.38Z"/></g></g></svg>